0
SECTION
2
HEADER
9
$INSUNITS
70
4
9
$ACADVER
1
AC1014
9
$HANDSEED
5
FFFF
0
ENDSEC
0
SECTION
2
TABLES
0
TABLE
2
VPORT
5
8
100
AcDbSymbolTable
0
ENDTAB
0
TABLE
2
LTYPE
5
5
100
AcDbSymbolTable
0
LTYPE
5
14
100
AcDbSymbolTableRecord
100
AcDbLinetypeTableRecord
2
BYBLOCK
70
0
0
LTYPE
5
15
100
AcDbSymbolTableRecord
100
AcDbLinetypeTableRecord
2
BYLAYER
70
0
0
ENDTAB
0
TABLE
2
LAYER
5
2
100
AcDbSymbolTable
70
2
0
LAYER
5
50
100
AcDbSymbolTableRecord
100
AcDbLayerTableRecord
2
0
70
0
6
CONTINUOUS
0
ENDTAB
0
TABLE
2
STYLE
5
3
100
AcDbSymbolTable
70
1
0
STYLE
5
11
100
AcDbSymbolTableRecord
100
AcDbTextStyleTableRecord
2
STANDARD
70
0
0
ENDTAB
0
TABLE
2
VIEW
5
6
100
AcDbSymbolTable
70
0
0
ENDTAB
0
TABLE
2
UCS
5
7
100
AcDbSymbolTable
70
0
0
ENDTAB
0
TABLE
2
APPID
5
9
100
AcDbSymbolTable
70
2
0
APPID
5
12
100
AcDbSymbolTableRecord
100
AcDbRegAppTableRecord
2
ACAD
70
0
0
ENDTAB
0
TABLE
2
DIMSTYLE
5
A
100
AcDbSymbolTable
70
1
0
ENDTAB
0
TABLE
2
BLOCK_RECORD
5
1
100
AcDbSymbolTable
70
1
0
BLOCK_RECORD
5
1F
100
AcDbSymbolTableRecord
100
AcDbBlockTableRecord
2
*MODEL_SPACE
0
BLOCK_RECORD
5
1B
100
AcDbSymbolTableRecord
100
AcDbBlockTableRecord
2
*PAPER_SPACE
0
ENDTAB
0
ENDSEC
0
SECTION
2
BLOCKS
0
BLOCK
5
20
100
AcDbEntity
100
AcDbBlockBegin
2
*MODEL_SPACE
0
ENDBLK
5
21
100
AcDbEntity
100
AcDbBlockEnd
0
BLOCK
5
1C
100
AcDbEntity
100
AcDbBlockBegin
2
*PAPER_SPACE
0
ENDBLK
5
1D
100
AcDbEntity
100
AcDbBlockEnd
0
ENDSEC
0
SECTION
2
ENTITIES
0
LWPOLYLINE
5
100
100
AcDbEntity
8
0
100
AcDbPolyline
90
4
70
1
43
0.0
10
79.149999999999991
20
96.199999999999989
10
21.999999999999989
20
96.199999999999989
10
21.999999999999993
20
19.999999999999996
10
79.149999999999991
20
20
0
LWPOLYLINE
5
101
100
AcDbEntity
8
0
100
AcDbPolyline
90
4
70
1
43
0.0
10
117.99999999999999
20
96.199999999999989
10
98.949999999999974
20
96.199999999999989
10
98.949999999999974
20
19.999999999999996
10
117.99999999999999
20
20
0
LINE
5
102
100
AcDbEntity
8
0
100
AcDbLine
10
15.999999999999988
20
112
30
0
11
15.999999999999995
21
28.000000000000007
31
0
0
LINE
5
103
100
AcDbEntity
8
0
100
AcDbLine
10
123.99999999999999
20
112
30
0
11
123.99999999999999
21
28.000000000000007
31
0
0
LINE
5
104
100
AcDbEntity
8
0
100
AcDbLine
10
28
20
15.999999999999998
30
0
11
112
21
16
31
0
0
LWPOLYLINE
5
105
100
AcDbEntity
8
0
100
AcDbPolyline
90
4
70
1
43
0.0
10
117.625
20
119.99999999999999
10
22.374999999999989
20
119.99999999999999
10
22.374999999999989
20
100.94999999999997
10
117.625
20
100.94999999999997
0
LINE
5
106
100
AcDbEntity
8
0
100
AcDbLine
10
112
20
123.99999999999999
30
0
11
28.000000000000007
21
123.99999999999999
31
0
0
LWPOLYLINE
5
107
100
AcDbEntity
8
0
100
AcDbPolyline
90
4
70
1
43
0.0
10
97.849194244714653
20
93.719741335908168
10
85.849194244714653
20
93.719741335908168
10
85.849194244714653
20
63.719741335908168
10
97.849194244714653
20
63.719741335908168
0
LWPOLYLINE
5
108
100
AcDbEntity
8
0
100
AcDbPolyline
90
4
70
1
43
0.0
10
97.849194244714653
20
62.785718730165357
10
82.849194244714653
20
62.785718730165357
10
82.849194244714653
20
41.785718730165364
10
97.849194244714653
20
41.785718730165364
0
LWPOLYLINE
5
109
100
AcDbEntity
8
0
100
AcDbPolyline
90
4
70
1
43
0.0
10
97.500001236796379
20
36.000000536441803
10
83.000001236796379
20
36.000000536441803
10
83.000001236796379
20
23.600000536441801
10
97.500001236796379
20
23.600000536441801
0
LWPOLYLINE
5
110
100
AcDbEntity
8
0
100
AcDbPolyline
90
4
70
1
43
0.0
10
91.850001236796373
20
28.740000536441798
10
88.650001236796371
20
28.740000536441798
10
88.650001236796371
20
31.940000536441801
10
91.850001236796373
20
31.940000536441801
0
ARC
5
111
100
AcDbEntity
8
0
100
AcDbCircle
10
27.999999999999979
20
112
30
0
40
11.999999999999993
210
0
220
-0
230
1
100
AcDbArc
50
89.999999999999872
51
180
0
ARC
5
112
100
AcDbEntity
8
0
100
AcDbCircle
10
112
20
112
30
0
40
11.999999999999993
210
0
220
-0
230
1
100
AcDbArc
50
0
51
90
0
ARC
5
113
100
AcDbEntity
8
0
100
AcDbCircle
10
27.999999999999993
20
28
30
0
40
12
210
0
220
0
230
1
100
AcDbArc
50
180
51
270
0
ARC
5
114
100
AcDbEntity
8
0
100
AcDbCircle
10
112
20
27.999999999999993
30
0
40
11.999999999999993
210
-0
220
0
230
1
100
AcDbArc
50
-90
51
0
0
ENDSEC
0
SECTION
2
OBJECTS
0
DICTIONARY
5
C
100
AcDbDictionary
3
ACAD_GROUP
350
D
3
ACAD_MLINESTYLE
350
17
0
DICTIONARY
5
D
100
AcDbDictionary
0
DICTIONARY
5
1A
330
C
100
AcDbDictionary
0
DICTIONARY
5
17
100
AcDbDictionary
0
ENDSEC
0
EOF
